<svg width="138" height="40" viewBox="0 0 138 40" fill="none" xmlns="http://www.w3.org/2000/svg">
<g clip-path="url(#clip0_8288_324)">
<path d="M127.011 0.00013H10.9957C10.5728 0.00013 10.155 0.00013 9.73319 0.00213C9.38013 0.00413 9.02988 0.00994 8.67343 0.01483C7.89905 0.0227318 7.1265 0.0818063 6.36248 0.19154C5.59953 0.303663 4.86048 0.515046 4.17033 0.81854C3.48102 1.1246 2.85118 1.5223 2.30365 1.9972C1.75326 2.47077 1.29446 3.01815 0.944898 3.61829C0.594374 4.21724 0.35132 4.85907 0.22413 5.52161C0.0957306 6.18332 0.0266377 6.85265 0.0174714 7.52361C0.00676945 7.83021 0.00563929 8.13783 0 8.44447V31.5587C0.00563929 31.8692 0.00676945 32.17 0.0174714 32.4806C0.0266405 33.1516 0.0957334 33.8209 0.22413 34.4825C0.350969 35.1455 0.594037 35.7877 0.944898 36.3868C1.2943 36.985 1.75316 37.5302 2.30365 38.0011C2.8491 38.4781 3.47935 38.8761 4.17033 39.1798C4.86047 39.4841 5.59944 39.6968 6.36248 39.8106C7.12663 39.9195 7.8991 39.9786 8.67343 39.9874C9.02988 39.9942 9.38013 39.9981 9.73319 39.9981C10.1549 40.0001 10.5728 40.0001 10.9957 40.0001H127.011C127.425 40.0001 127.846 40.0001 128.261 39.9981C128.612 39.9981 128.972 39.9942 129.324 39.9874C130.097 39.9791 130.868 39.92 131.63 39.8106C132.396 39.696 133.137 39.4834 133.831 39.1798C134.521 38.8759 135.151 38.478 135.696 38.0011C136.245 37.5284 136.705 36.9836 137.059 36.3868C137.407 35.7872 137.647 35.1451 137.772 34.4825C137.901 33.8208 137.973 33.1516 137.987 32.4806C137.991 32.17 137.991 31.8692 137.991 31.5587C138 31.1954 138 30.8341 138 30.4649V9.53626C138 9.17005 138 8.80677 137.991 8.44447C137.991 8.13783 137.991 7.83021 137.987 7.52357C137.973 6.85255 137.901 6.18337 137.772 5.52157C137.647 4.85941 137.406 4.21763 137.059 3.61825C136.347 2.41533 135.218 1.43616 133.831 0.81845C133.137 0.515697 132.396 0.30437 131.63 0.19145C130.868 0.0812328 130.097 0.0221378 129.324 0.01469C128.972 0.00981 128.612 0.00395 128.261 0.002C127.846 0 127.425 0.00013 127.011 0.00013Z" fill="#A6A6A6"/>
<path d="M9.73887 39.125C9.38751 39.125 9.04463 39.1211 8.69602 39.1143C7.97385 39.1061 7.25336 39.0516 6.54048 38.9512C5.87574 38.8519 5.2318 38.6673 4.62988 38.4033C4.03347 38.1415 3.48951 37.7983 3.01882 37.3867C2.54131 36.98 2.14377 36.5082 1.84193 35.9902C1.53678 35.4688 1.32559 34.9099 1.21573 34.333C1.09709 33.7131 1.0329 33.0863 1.02372 32.458C1.01641 32.2471 1.00684 31.5449 1.00684 31.5449V8.44434C1.00684 8.44434 1.01703 7.75293 1.02378 7.5498C1.03257 6.92248 1.09639 6.29665 1.21467 5.67773C1.32473 5.09925 1.53608 4.53875 1.8414 4.01563C2.14213 3.49794 2.53746 3.02586 3.01209 2.61768C3.48619 2.20562 4.03189 1.8606 4.62931 1.59521C5.22985 1.33209 5.87258 1.14873 6.53597 1.05127C7.2512 0.949836 7.97418 0.894996 8.69886 0.88721L9.73944 0.875H128.255L129.308 0.8877C130.026 0.895099 130.743 0.94945 131.451 1.05029C132.121 1.14898 132.771 1.33362 133.378 1.59814C134.575 2.13299 135.549 2.97916 136.163 4.01807C136.464 4.53758 136.672 5.09351 136.78 5.66699C136.9 6.29099 136.967 6.92174 136.981 7.5542C136.984 7.8374 136.984 8.1416 136.984 8.44434C136.993 8.81934 136.993 9.17627 136.993 9.53613V30.4648C136.993 30.8281 136.993 31.1826 136.984 31.54C136.984 31.8652 136.984 32.1631 136.98 32.4697C136.966 33.0909 136.9 33.7104 136.783 34.3232C136.675 34.9043 136.465 35.4675 136.16 35.9932C135.856 36.5056 135.461 36.9733 134.989 37.3789C134.518 37.7927 133.973 38.1379 133.375 38.4014C132.769 38.6674 132.121 38.8527 131.451 38.9512C130.738 39.0522 130.018 39.1067 129.296 39.1143C128.958 39.1211 128.604 39.125 128.261 39.125L127.011 39.127L9.73887 39.125Z" fill="black"/>
<path d="M33.7973 20.3006C33.8081 19.4659 34.0298 18.6475 34.4418 17.9216C34.8538 17.1956 35.4428 16.5857 36.1539 16.1485C35.7021 15.5034 35.1062 14.9724 34.4134 14.5979C33.7205 14.2233 32.9499 14.0155 32.1627 13.9908C30.4835 13.8146 28.8555 14.9957 27.9998 14.9957C27.1275 14.9957 25.81 14.0083 24.3913 14.0375C23.4736 14.0672 22.5793 14.334 21.7954 14.8121C21.0115 15.2901 20.3649 15.9631 19.9184 16.7654C17.9844 20.1138 19.427 25.0349 21.2796 27.7415C22.2065 29.0668 23.2898 30.5473 24.7072 30.4948C26.0943 30.4372 26.6123 29.6103 28.2866 29.6103C29.9454 29.6103 30.4314 30.4948 31.8776 30.4614C33.366 30.4372 34.3038 29.1302 35.1981 27.7923C35.8641 26.8479 36.3766 25.8042 36.7166 24.6997C35.8518 24.334 35.1139 23.7218 34.5948 22.9395C34.0757 22.1572 33.7983 21.2394 33.7973 20.3006Z" fill="white"/>
<path d="M31.0656 12.2108C31.8772 11.2366 32.277 9.98445 32.1802 8.72021C30.9403 8.85044 29.7951 9.44299 28.9726 10.3798C28.5704 10.8375 28.2624 11.3699 28.0662 11.9467C27.87 12.5235 27.7893 13.1333 27.8289 13.7412C28.449 13.7476 29.0625 13.6132 29.6232 13.3481C30.1838 13.083 30.6771 12.6942 31.0656 12.2108Z" fill="white"/>
<path d="M51.3308 27.1397H46.5974L45.4607 30.4961H43.4558L47.9392 18.0781H50.0222L54.5056 30.4961H52.4665L51.3308 27.1397ZM47.0876 25.5908H50.8396L48.99 20.1436H48.9383L47.0876 25.5908Z" fill="white"/>
<path d="M64.1883 25.9697C64.1883 28.7832 62.6824 30.5908 60.4099 30.5908C59.8343 30.6209 59.2618 30.4883 58.758 30.2082C58.2542 29.928 57.8395 29.5117 57.5613 29.0068H57.5183V33.4912H55.6599V21.4423H57.4588V22.9482H57.493C57.7839 22.4457 58.2056 22.0316 58.7133 21.7497C59.2209 21.4679 59.7954 21.3289 60.3758 21.3476C62.6736 21.3476 64.1883 23.164 64.1883 25.9697ZM62.2781 25.9697C62.2781 24.1367 61.3308 22.9316 59.8855 22.9316C58.4656 22.9316 57.5105 24.1621 57.5105 25.9697C57.5105 27.7939 58.4656 29.0156 59.8855 29.0156C61.3308 29.0156 62.2781 27.8193 62.2781 25.9697Z" fill="white"/>
<path d="M74.1531 25.9697C74.1531 28.7832 72.6472 30.5908 70.3748 30.5908C69.7991 30.6209 69.2266 30.4883 68.7228 30.2081C68.219 29.928 67.8043 29.5117 67.5262 29.0068H67.4832V33.4912H65.6248V21.4423H67.4236V22.9482H67.4578C67.7487 22.4457 68.1704 22.0315 68.6781 21.7497C69.1857 21.4679 69.7603 21.3289 70.3406 21.3476C72.6385 21.3476 74.1531 23.164 74.1531 25.9697ZM72.2429 25.9697C72.2429 24.1367 71.2957 22.9316 69.8504 22.9316C68.4304 22.9316 67.4754 24.1621 67.4754 25.9697C67.4754 27.7939 68.4304 29.0156 69.8504 29.0156C71.2957 29.0156 72.2429 27.8193 72.2429 25.9697Z" fill="white"/>
<path d="M80.739 27.0362C80.8767 28.2676 82.073 29.0762 83.7078 29.0762C85.2742 29.0762 86.4012 28.2676 86.4012 27.1572C86.4012 26.1934 85.7215 25.6162 84.1121 25.2207L82.5027 24.833C80.2225 24.2822 79.1638 23.2158 79.1638 21.4854C79.1638 19.3428 81.031 17.8711 83.6824 17.8711C86.3064 17.8711 88.1053 19.3428 88.1658 21.4854H86.2898C86.1775 20.2461 85.1531 19.4981 83.656 19.4981C82.1589 19.4981 81.1345 20.2549 81.1345 21.3565C81.1345 22.2344 81.7888 22.751 83.3894 23.1465L84.7576 23.4824C87.3054 24.0849 88.364 25.1084 88.364 26.9248C88.364 29.248 86.5134 30.7031 83.5701 30.7031C80.8162 30.7031 78.9568 29.2822 78.8367 27.0361L80.739 27.0362Z" fill="white"/>
<path d="M92.3747 19.2998V21.4424H94.0964V22.9141H92.3747V27.9053C92.3747 28.6807 92.7195 29.042 93.4763 29.042C93.6807 29.0384 93.8848 29.0241 94.0876 28.999V30.4619C93.7474 30.5255 93.4015 30.5543 93.0554 30.5478C91.2224 30.5478 90.5076 29.8593 90.5076 28.1035V22.9141H89.1912V21.4424H90.5075V19.2998H92.3747Z" fill="white"/>
<path d="M95.0935 25.9697C95.0935 23.1211 96.7712 21.3311 99.3875 21.3311C102.012 21.3311 103.682 23.1211 103.682 25.9697C103.682 28.8262 102.021 30.6084 99.3875 30.6084C96.7546 30.6084 95.0935 28.8262 95.0935 25.9697ZM101.789 25.9697C101.789 24.0156 100.893 22.8623 99.3874 22.8623C97.8816 22.8623 96.9871 24.0244 96.9871 25.9697C96.9871 27.9316 97.8816 29.0762 99.3874 29.0762C100.893 29.0762 101.789 27.9316 101.789 25.9697Z" fill="white"/>
<path d="M105.215 21.4425H106.987V22.9835H107.03C107.15 22.5022 107.432 22.0769 107.829 21.779C108.225 21.4811 108.712 21.3288 109.208 21.3478C109.422 21.347 109.636 21.3703 109.845 21.4171V23.1554C109.574 23.0728 109.292 23.0348 109.01 23.0431C108.74 23.0321 108.47 23.0797 108.221 23.1826C107.971 23.2855 107.746 23.4412 107.562 23.6391C107.378 23.837 107.239 24.0724 107.155 24.3291C107.07 24.5857 107.042 24.8576 107.073 25.1261V30.4962H105.215L105.215 21.4425Z" fill="white"/>
<path d="M118.413 27.8369C118.163 29.4805 116.562 30.6084 114.514 30.6084C111.881 30.6084 110.246 28.8437 110.246 26.0127C110.246 23.1729 111.889 21.3311 114.436 21.3311C116.941 21.3311 118.516 23.0518 118.516 25.7969V26.4336H112.122V26.5459C112.092 26.8791 112.134 27.2148 112.244 27.5306C112.354 27.8464 112.531 28.1352 112.761 28.3778C112.991 28.6203 113.271 28.8111 113.58 28.9374C113.89 29.0637 114.223 29.1226 114.557 29.1103C114.997 29.1515 115.437 29.0498 115.814 28.8203C116.191 28.5909 116.483 28.246 116.648 27.8369L118.413 27.8369ZM112.131 25.1348H116.657C116.674 24.8352 116.628 24.5354 116.524 24.2541C116.419 23.9729 116.257 23.7164 116.049 23.5006C115.84 23.2849 115.589 23.1145 115.312 23.0003C115.034 22.8861 114.736 22.8305 114.436 22.8369C114.134 22.8351 113.834 22.8933 113.554 23.008C113.274 23.1227 113.019 23.2918 112.805 23.5054C112.59 23.7191 112.42 23.973 112.305 24.2527C112.189 24.5323 112.13 24.8321 112.131 25.1348Z" fill="white"/>
<path d="M46.8545 8.73089C47.2441 8.70293 47.6351 8.76179 47.9992 8.90323C48.3633 9.04466 48.6915 9.26514 48.9601 9.54876C49.2286 9.83239 49.4309 10.1721 49.5523 10.5434C49.6737 10.9146 49.7112 11.3082 49.6621 11.6957C49.6621 13.602 48.6318 14.6977 46.8545 14.6977H44.6992V8.73089H46.8545ZM45.626 13.8539H46.751C47.0294 13.8705 47.308 13.8249 47.5665 13.7203C47.8251 13.6157 48.057 13.4547 48.2455 13.2491C48.434 13.0436 48.5743 12.7986 48.6562 12.532C48.738 12.2653 48.7594 11.9838 48.7187 11.7079C48.7564 11.4331 48.7329 11.1533 48.6498 10.8886C48.5667 10.624 48.426 10.381 48.238 10.177C48.0499 9.9731 47.8191 9.81329 47.562 9.70905C47.3049 9.60481 47.028 9.55873 46.751 9.5741H45.626V13.8539Z" fill="white"/>
<path d="M54.7402 13.482C54.6194 13.8936 54.3578 14.2495 54.0011 14.4877C53.6444 14.7258 53.2154 14.831 52.789 14.7847C52.4923 14.7926 52.1975 14.7358 51.925 14.6182C51.6525 14.5007 51.4088 14.3253 51.2109 14.1041C51.013 13.883 50.8656 13.6214 50.7789 13.3376C50.6922 13.0538 50.6683 12.7545 50.7089 12.4605C50.6694 12.1656 50.6937 11.8657 50.7802 11.581C50.8667 11.2964 51.0133 11.0336 51.2102 10.8105C51.4071 10.5874 51.6496 10.4093 51.9213 10.2881C52.193 10.1669 52.4876 10.1054 52.7851 10.108C54.038 10.108 54.7939 10.964 54.7939 12.378V12.6881H51.6142V12.7379C51.6003 12.9031 51.6211 13.0695 51.6752 13.2262C51.7293 13.383 51.8156 13.5267 51.9285 13.6481C52.0414 13.7696 52.1785 13.8661 52.3309 13.9315C52.4832 13.9969 52.6476 14.0297 52.8134 14.0279C53.026 14.0534 53.2414 14.0151 53.4321 13.9179C53.6229 13.8207 53.7804 13.669 53.8847 13.482L54.7402 13.482ZM51.6142 12.0308H53.8886C53.8998 11.8797 53.8792 11.7279 53.8283 11.5852C53.7773 11.4425 53.6971 11.312 53.5927 11.2021C53.4883 11.0923 53.3621 11.0055 53.2222 10.9473C53.0822 10.8891 52.9317 10.8609 52.7802 10.8643C52.6265 10.8624 52.4739 10.8913 52.3316 10.9492C52.1892 11.0072 52.0599 11.093 51.9512 11.2018C51.8426 11.3105 51.7568 11.4398 51.6989 11.5822C51.641 11.7246 51.6122 11.8772 51.6142 12.0308Z" fill="white"/>
<path d="M57.6328 10.1079C58.6455 10.1079 59.3076 10.5791 59.3945 11.373H58.542C58.46 11.0425 58.1367 10.8315 57.6328 10.8315C57.1367 10.8315 56.7598 11.0669 56.7598 11.4185C56.7598 11.6875 56.9873 11.8569 57.4756 11.9688L58.2236 12.1421C59.0801 12.3408 59.4814 12.709 59.4814 13.3706C59.4814 14.2183 58.6914 14.7847 57.6162 14.7847C56.5449 14.7847 55.8467 14.3008 55.7676 13.5029H56.6572C56.7339 13.6928 56.8721 13.8515 57.0498 13.9534C57.2274 14.0553 57.4341 14.0946 57.6367 14.0649C58.1904 14.0649 58.584 13.8169 58.584 13.457C58.584 13.1885 58.373 13.0146 57.9219 12.9072L57.1367 12.7251C56.2803 12.5224 55.8838 12.1382 55.8838 11.4683C55.8838 10.6699 56.6152 10.1079 57.6328 10.1079Z" fill="white"/>
<path d="M63.6271 11.6664C63.5704 11.4329 63.432 11.2274 63.2369 11.0871C63.0418 10.9469 62.803 10.8811 62.5636 10.9017C61.8194 10.9017 61.3644 11.4721 61.3644 12.4315C61.3644 13.4076 61.8234 13.9906 62.5636 13.9906C62.8006 14.0181 63.0395 13.958 63.2354 13.8217C63.4312 13.6854 63.5705 13.4822 63.6271 13.2504H64.4913C64.4342 13.7064 64.2011 14.122 63.8419 14.4086C63.4827 14.6952 63.0257 14.8301 62.5685 14.7846C62.2674 14.7941 61.9679 14.7377 61.6908 14.6193C61.4138 14.501 61.166 14.3236 60.9647 14.0994C60.7634 13.8753 60.6135 13.6099 60.5255 13.3218C60.4375 13.0338 60.4135 12.7299 60.4552 12.4316C60.4156 12.1354 60.4411 11.8342 60.53 11.549C60.6189 11.2637 60.7689 11.0013 60.9697 10.78C61.1704 10.5587 61.4171 10.384 61.6924 10.2679C61.9677 10.1518 62.265 10.0971 62.5636 10.1078C63.0246 10.0654 63.484 10.2045 63.844 10.4956C64.2041 10.7867 64.4363 11.2067 64.4913 11.6664L63.6271 11.6664Z" fill="white"/>
<path d="M65.373 13.4243C65.373 12.6138 65.9766 12.1465 67.0478 12.0801L68.2676 12.0098V11.6211C68.2676 11.1455 67.9531 10.877 67.3457 10.877C66.8496 10.877 66.5059 11.0591 66.4072 11.3775H65.5469C65.6377 10.604 66.3652 10.1079 67.3867 10.1079C68.5156 10.1079 69.1523 10.6699 69.1523 11.6211V14.6978H68.2969V14.065H68.2266C68.0839 14.2919 67.8834 14.477 67.6458 14.6012C67.4082 14.7254 67.1419 14.7843 66.874 14.772C66.685 14.7916 66.4939 14.7714 66.3132 14.7127C66.1324 14.654 65.966 14.5581 65.8245 14.4312C65.6831 14.3042 65.5699 14.149 65.4921 13.9756C65.4144 13.8022 65.3738 13.6144 65.373 13.4243ZM68.2676 13.0396V12.6631L67.168 12.7334C66.5478 12.7749 66.2666 12.9858 66.2666 13.3828C66.2666 13.7881 66.6182 14.0239 67.1016 14.0239C67.2432 14.0383 67.3863 14.024 67.5223 13.9819C67.6583 13.9398 67.7845 13.8708 67.8933 13.7789C68.0021 13.6871 68.0913 13.5743 68.1556 13.4473C68.2199 13.3203 68.258 13.1816 68.2676 13.0396ZM66.8535 9.44189L67.8916 8.01953H68.9336L67.7715 9.44189H66.8535Z" fill="white"/>
<path d="M70.5439 10.1949H71.3994V10.8853H71.4658C71.5616 10.6457 71.7309 10.4425 71.9493 10.305C72.1677 10.1676 72.4241 10.1028 72.6816 10.1202C72.8147 10.1184 72.9477 10.1308 73.0781 10.1573V11.0343C72.915 10.9995 72.7488 10.9815 72.582 10.9806C72.4355 10.9674 72.2878 10.9851 72.1484 11.0324C72.0091 11.0797 71.8812 11.1557 71.7729 11.2554C71.6647 11.3551 71.5785 11.4763 71.5199 11.6113C71.4613 11.7463 71.4315 11.892 71.4326 12.0392V14.6979H70.544L70.5439 10.1949Z" fill="white"/>
<path d="M73.8945 15.1484H74.8042C74.8794 15.4751 75.2554 15.686 75.855 15.686C76.5952 15.686 77.0337 15.3344 77.0337 14.7392V13.875H76.9673C76.8279 14.1169 76.6243 14.3156 76.3791 14.4491C76.1339 14.5825 75.8565 14.6456 75.5776 14.6313C74.4282 14.6313 73.7168 13.7426 73.7168 12.3945C73.7168 11.0215 74.436 10.1201 75.5864 10.1201C75.8723 10.1101 76.1553 10.1789 76.4047 10.3189C76.6541 10.459 76.8602 10.6648 77.0005 10.914H77.0708V10.1948H77.9224V14.7348C77.9224 15.7646 77.1157 16.4179 75.8423 16.4179C74.7173 16.418 73.9893 15.9135 73.8945 15.1484ZM77.0503 12.3901C77.0503 11.4931 76.5864 10.9184 75.8296 10.9184C75.0649 10.9184 74.6352 11.4931 74.6352 12.3901C74.6352 13.2876 75.0649 13.8623 75.8296 13.8623C76.5913 13.8623 77.0503 13.292 77.0503 12.3901Z" fill="white"/>
<path d="M79.0815 13.4243C79.0815 12.6138 79.6851 12.1465 80.7563 12.0801L81.9761 12.0098V11.6211C81.9761 11.1455 81.6616 10.877 81.0542 10.877C80.5581 10.877 80.2144 11.0591 80.1157 11.3774H79.2554C79.3462 10.604 80.0737 10.1079 81.0952 10.1079C82.2241 10.1079 82.8608 10.6699 82.8608 11.6211V14.6978H82.0054V14.0649H81.9351C81.7924 14.2919 81.5919 14.477 81.3543 14.6012C81.1167 14.7254 80.8504 14.7843 80.5825 14.7719C80.3935 14.7916 80.2024 14.7714 80.0217 14.7127C79.8409 14.654 79.6745 14.5581 79.533 14.4311C79.3916 14.3042 79.2784 14.149 79.2006 13.9756C79.1229 13.8021 79.0823 13.6144 79.0815 13.4243ZM81.9761 13.0395V12.6631L80.8765 12.7334C80.2563 12.7749 79.9751 12.9858 79.9751 13.3828C79.9751 13.7881 80.3267 14.0239 80.8101 14.0239C80.9517 14.0382 81.0948 14.0239 81.2308 13.9819C81.3668 13.9398 81.493 13.8707 81.6018 13.7789C81.7106 13.6871 81.7997 13.5743 81.8641 13.4473C81.9284 13.3202 81.9665 13.1816 81.9761 13.0395Z" fill="white"/>
<path d="M84.2935 8.43701H85.1821V14.6978H84.2935V8.43701Z" fill="white"/>
<path d="M86.4175 12.4443C86.3892 12.1484 86.4231 11.8498 86.5169 11.5677C86.6107 11.2857 86.7625 11.0263 86.9624 10.8063C87.1624 10.5864 87.4061 10.4106 87.6779 10.2903C87.9498 10.17 88.2438 10.1079 88.5411 10.1079C88.8383 10.1079 89.1323 10.17 89.4042 10.2903C89.676 10.4106 89.9197 10.5864 90.1197 10.8063C90.3196 11.0263 90.4714 11.2857 90.5652 11.5677C90.659 11.8498 90.6929 12.1484 90.6646 12.4443C90.6934 12.7405 90.66 13.0395 90.5664 13.322C90.4728 13.6045 90.3211 13.8644 90.1211 14.0848C89.9211 14.3052 89.6772 14.4813 89.4051 14.6019C89.133 14.7224 88.8387 14.7847 88.5411 14.7847C88.2434 14.7847 87.9491 14.7224 87.677 14.6019C87.4048 14.4813 87.161 14.3052 86.961 14.0848C86.761 13.8644 86.6093 13.6045 86.5157 13.322C86.4221 13.0395 86.3887 12.7405 86.4175 12.4443ZM89.7505 12.4443C89.7505 11.4682 89.312 10.8974 88.5425 10.8974C87.7701 10.8974 87.3355 11.4682 87.3355 12.4443C87.3355 13.4282 87.7701 13.9946 88.5425 13.9946C89.312 13.9946 89.7505 13.4243 89.7505 12.4443Z" fill="white"/>
<path d="M98.1078 13.482C97.9871 13.8936 97.7255 14.2495 97.3688 14.4877C97.0121 14.7258 96.583 14.831 96.1567 14.7847C95.86 14.7926 95.5652 14.7358 95.2927 14.6182C95.0202 14.5007 94.7765 14.3253 94.5786 14.1041C94.3807 13.883 94.2333 13.6214 94.1466 13.3376C94.0599 13.0538 94.036 12.7545 94.0766 12.4605C94.0371 12.1656 94.0614 11.8657 94.1479 11.581C94.2344 11.2964 94.381 11.0336 94.5779 10.8105C94.7747 10.5874 95.0172 10.4093 95.2889 10.2881C95.5607 10.1669 95.8552 10.1054 96.1527 10.108C97.4057 10.108 98.1615 10.964 98.1615 12.378V12.6881H94.9818V12.7379C94.9679 12.9031 94.9887 13.0695 95.0428 13.2262C95.0969 13.383 95.1832 13.5267 95.2961 13.6481C95.409 13.7696 95.5461 13.8661 95.6985 13.9315C95.8509 13.9969 96.0152 14.0297 96.1811 14.0279C96.3936 14.0534 96.609 14.0151 96.7998 13.9179C96.9905 13.8207 97.1481 13.669 97.2524 13.482L98.1078 13.482ZM94.9818 12.0308H97.2562C97.2674 11.8797 97.2469 11.7279 97.1959 11.5852C97.145 11.4425 97.0647 11.312 96.9603 11.2021C96.8559 11.0923 96.7297 11.0055 96.5898 10.9473C96.4499 10.8891 96.2993 10.8609 96.1478 10.8643C95.9941 10.8624 95.8416 10.8913 95.6992 10.9492C95.5569 11.0072 95.4275 11.093 95.3189 11.2017C95.2102 11.3105 95.1244 11.4398 95.0665 11.5822C95.0086 11.7246 94.9798 11.8772 94.9818 12.0308Z" fill="white"/>
<path d="M99.355 10.1949H100.21V10.9102H100.277C100.39 10.6533 100.58 10.4379 100.82 10.2941C101.061 10.1503 101.341 10.0852 101.621 10.1079C101.84 10.0915 102.06 10.1245 102.264 10.2046C102.469 10.2847 102.653 10.4098 102.803 10.5707C102.952 10.7315 103.064 10.924 103.129 11.1338C103.194 11.3436 103.211 11.5654 103.179 11.7827V14.6977H102.291V12.0059C102.291 11.2823 101.976 10.9224 101.319 10.9224C101.17 10.9155 101.022 10.9408 100.884 10.9966C100.745 11.0525 100.621 11.1375 100.519 11.2459C100.417 11.3543 100.339 11.4834 100.292 11.6246C100.244 11.7657 100.228 11.9154 100.244 12.0635V14.6978H99.355V10.1949Z" fill="white"/>
<path d="M110.804 13.482C110.683 13.8936 110.422 14.2495 110.065 14.4877C109.708 14.7258 109.279 14.831 108.853 14.7847C108.556 14.7926 108.261 14.7358 107.989 14.6182C107.716 14.5007 107.473 14.3253 107.275 14.1041C107.077 13.883 106.93 13.6214 106.843 13.3376C106.756 13.0538 106.732 12.7545 106.773 12.4605C106.733 12.1656 106.758 11.8657 106.844 11.581C106.931 11.2964 107.077 11.0336 107.274 10.8105C107.471 10.5874 107.714 10.4093 107.985 10.2881C108.257 10.1669 108.552 10.1054 108.849 10.108C110.102 10.108 110.858 10.964 110.858 12.378V12.6881H107.678V12.7379C107.664 12.9031 107.685 13.0695 107.739 13.2262C107.793 13.383 107.88 13.5267 107.992 13.6481C108.105 13.7696 108.242 13.8661 108.395 13.9315C108.547 13.9969 108.712 14.0297 108.877 14.0279C109.09 14.0534 109.305 14.0151 109.496 13.9179C109.687 13.8207 109.844 13.669 109.949 13.482L110.804 13.482ZM107.678 12.0308H109.953C109.964 11.8797 109.943 11.7279 109.892 11.5852C109.841 11.4425 109.761 11.312 109.657 11.2021C109.552 11.0923 109.426 11.0055 109.286 10.9473C109.146 10.8891 108.996 10.8609 108.844 10.8643C108.69 10.8624 108.538 10.8913 108.396 10.9492C108.253 11.0072 108.124 11.093 108.015 11.2017C107.906 11.3104 107.821 11.4398 107.763 11.5822C107.705 11.7246 107.676 11.8771 107.678 12.0308Z" fill="white"/>
<path d="M112.092 8.43701H112.981V14.6978H112.092V8.43701Z" fill="white"/>
</g>
<defs>
<clipPath id="clip0_8288_324">
<rect width="138" height="40" fill="white"/>
</clipPath>
</defs>
</svg>
