<svg width="138" height="41" viewBox="0 0 138 41" fill="none" xmlns="http://www.w3.org/2000/svg">
<g clip-path="url(#clip0_8286_297)">
<mask id="mask0_8286_297" style="mask-type:luminance" maskUnits="userSpaceOnUse" x="0" y="0" width="138" height="41">
<path d="M138 0H0V40.1642H138V0Z" fill="white"/>
</mask>
<g mask="url(#mask0_8286_297)">
<mask id="mask1_8286_297" style="mask-type:luminance" maskUnits="userSpaceOnUse" x="0" y="0" width="138" height="40">
<path d="M138 0H0V40H138V0Z" fill="white"/>
</mask>
<g mask="url(#mask1_8286_297)">
<path d="M132.888 39.9979H5.11198C3.75778 39.994 2.46014 39.4662 1.50237 38.5297C0.544606 37.5931 0.00450828 36.324 0 34.9992L0 4.99869C0.00450828 3.67395 0.544606 2.40476 1.50237 1.46822C2.46014 0.531676 3.75778 0.00385651 5.11198 0H132.888C134.242 0.00385651 135.54 0.531676 136.498 1.46822C137.455 2.40476 137.995 3.67395 138 4.99869V34.9992C137.995 36.324 137.455 37.5931 136.498 38.5297C135.54 39.4662 134.242 39.994 132.888 39.9979Z" fill="#12100B"/>
<path d="M132.888 0.798286C134.026 0.799393 135.118 1.24229 135.923 2.02978C136.728 2.81727 137.181 3.88502 137.182 4.99869V34.9992C137.181 36.1129 136.728 37.1806 135.923 37.9681C135.118 38.7556 134.026 39.1985 132.888 39.1996H5.11198C3.97354 39.1985 2.88205 38.7556 2.07705 37.9681C1.27205 37.1806 0.819304 36.1129 0.818173 34.9992V4.99869C0.819304 3.88502 1.27205 2.81727 2.07705 2.02978C2.88205 1.24229 3.97354 0.799393 5.11198 0.798286H132.888ZM132.888 0H5.11198C3.75778 0.00385651 2.46014 0.531676 1.50237 1.46822C0.544606 2.40476 0.00450828 3.67395 0 4.99869L0 34.9992C0.00450828 36.324 0.544606 37.5931 1.50237 38.5297C2.46014 39.4662 3.75778 39.994 5.11198 39.9979H132.888C134.242 39.994 135.54 39.4662 136.498 38.5297C137.455 37.5931 137.995 36.324 138 34.9992V4.99869C137.995 3.67395 137.455 2.40476 136.498 1.46822C135.54 0.531676 134.242 0.00385651 132.888 0Z" fill="#AFACAB"/>
<path d="M69.6408 21.7502C68.7812 21.7531 67.9418 22.0051 67.2285 22.4744C66.5152 22.9436 65.9601 23.6091 65.6332 24.3868C65.3063 25.1645 65.2223 26.0196 65.3918 26.8439C65.5613 27.6683 65.9767 28.4251 66.5856 29.0186C67.1944 29.6122 67.9694 30.016 68.8127 30.179C69.656 30.342 70.5297 30.2569 71.3236 29.9344C72.1174 29.6119 72.7958 29.0666 73.2731 28.3672C73.7504 27.6679 74.0051 26.8458 74.0051 26.005C74.0138 25.4426 73.9067 24.8843 73.6903 24.3633C73.4738 23.8423 73.1524 23.3692 72.7452 22.9722C72.338 22.5752 71.8533 22.2625 71.32 22.0525C70.7866 21.8426 70.2156 21.7398 69.6408 21.7502ZM69.6408 28.5816C68.3249 28.5816 67.1863 27.5179 67.1863 26.005C67.1863 24.492 68.3334 23.4262 69.6408 23.4262C70.9481 23.4262 72.0953 24.4711 72.0953 26.005C72.0953 27.5388 70.9588 28.5816 69.6408 28.5816ZM60.1196 21.7502C59.2601 21.7535 58.4209 22.0059 57.7079 22.4754C56.9949 22.9449 56.4401 23.6105 56.1136 24.3883C55.787 25.166 55.7033 26.021 55.873 26.8452C56.0428 27.6694 56.4584 28.426 57.0673 29.0194C57.6762 29.6127 58.4512 30.0163 59.2945 30.1791C60.1377 30.3419 61.0113 30.2567 61.8051 29.9342C62.5988 29.6117 63.2771 29.0663 63.7542 28.367C64.2314 27.6677 64.4861 26.8457 64.4861 26.005C64.4948 25.4424 64.3876 24.884 64.1711 24.3628C63.9545 23.8417 63.6329 23.3685 63.2255 22.9715C62.818 22.5744 62.3331 22.2617 61.7995 22.0519C61.2659 21.8421 60.6946 21.7395 60.1196 21.7502ZM60.1196 28.5816C58.8037 28.5816 57.6672 27.5179 57.6672 26.005C57.6672 24.492 58.8037 23.4262 60.1196 23.4262C61.4355 23.4262 62.5741 24.4711 62.5741 26.005C62.5741 27.5388 61.4377 28.5816 60.1196 28.5816ZM48.7976 23.0563V24.8598H53.2111C53.0786 25.8754 52.7347 26.6152 52.2071 27.1313C51.5662 27.7583 50.56 28.4521 48.7891 28.4521C47.5311 28.3891 46.3458 27.856 45.4781 26.9626C44.6105 26.0693 44.1267 24.8841 44.1267 23.6519C44.1267 22.4196 44.6105 21.2344 45.4781 20.3411C46.3458 19.4478 47.5311 18.9146 48.7891 18.8517C50.0309 18.833 51.2297 19.2958 52.1237 20.139L53.4268 18.8663C52.8177 18.277 52.0946 17.8125 51.2997 17.5C50.5048 17.1874 49.6542 17.0331 48.7976 17.0462C45.0763 17.0462 41.9468 20.0115 41.9468 23.6519C41.9468 27.2922 45.0763 30.2576 48.7976 30.2576C50.8078 30.2576 52.3224 29.6119 53.4973 28.404C54.715 27.2128 55.0952 25.5368 55.0952 24.1827C55.1002 23.8049 55.0665 23.4276 54.9948 23.0563H48.7976ZM95.1131 24.4564C94.7499 23.5056 93.6476 21.7398 91.3918 21.7398C89.1359 21.7398 87.2902 23.4638 87.2902 25.9945C87.2778 26.5536 87.3807 27.1095 87.5928 27.6289C87.8049 28.1482 88.1217 28.6205 88.5245 29.0174C88.9273 29.4143 89.4076 29.7278 89.937 29.9391C90.4663 30.1504 91.0338 30.2551 91.6054 30.2472C92.3227 30.2526 93.03 30.0836 93.6639 29.7553C94.2978 29.427 94.8384 28.9497 95.237 28.3664L93.7545 27.3988C93.261 28.1072 92.5859 28.5753 91.6182 28.5753C91.1755 28.593 90.7376 28.4801 90.3612 28.2513C89.9849 28.0225 89.6875 27.6884 89.5076 27.2922L95.3203 24.9392L95.1131 24.4564ZM89.1851 25.8754C89.1646 25.566 89.2074 25.2557 89.3109 24.9627C89.4145 24.6696 89.5767 24.3997 89.7881 24.1688C89.9996 23.9378 90.256 23.7504 90.5423 23.6175C90.8287 23.4846 91.1393 23.4089 91.4559 23.3948C92.2164 23.3948 92.8572 23.7647 93.0709 24.2955L89.1851 25.8754ZM84.4576 29.9985H86.3674V17.4913H84.4576V29.9985ZM81.328 22.701H81.264C80.9733 22.3924 80.6187 22.1479 80.2238 21.9839C79.8289 21.82 79.4028 21.7403 78.9739 21.7502C76.7993 21.7502 74.8083 23.6184 74.8083 26.0196C74.8083 28.4207 76.7993 30.2576 78.9739 30.2576C79.4046 30.2687 79.8325 30.188 80.228 30.0209C80.6235 29.8538 80.977 29.6044 81.264 29.29H81.328V29.9023C81.328 31.5303 80.4394 32.41 79.0081 32.41C77.8375 32.41 77.1133 31.5888 76.8163 30.895L75.1544 31.5721C75.4678 32.3167 76.0011 32.9529 76.686 33.3996C77.3709 33.8463 78.1764 34.0831 78.9996 34.0798C81.2383 34.0798 83.1332 32.7904 83.1332 29.6495V22.0072H81.3195L81.328 22.701ZM79.1384 28.5816C77.8204 28.5816 76.7181 27.5012 76.7181 26.0196C76.7181 24.5379 77.8204 23.4262 79.1384 23.4262C80.4565 23.4262 81.4605 24.5212 81.4605 26.0196C81.4605 27.5179 80.4394 28.5816 79.1384 28.5816ZM104.062 17.5059H99.4988V30.0068H101.404V25.2631H104.068C106.183 25.2631 108.259 23.7647 108.259 21.3803C108.259 18.9959 106.183 17.4913 104.068 17.4913M104.117 23.5161H101.404V19.2362H104.117C104.411 19.2273 104.703 19.2761 104.977 19.3797C105.251 19.4834 105.5 19.6398 105.711 19.8397C105.922 20.0396 106.09 20.2789 106.204 20.5433C106.318 20.8078 106.377 21.0921 106.377 21.3793C106.377 21.6665 106.318 21.9507 106.204 22.2152C106.09 22.4797 105.922 22.719 105.711 22.9189C105.5 23.1187 105.251 23.2752 104.977 23.3788C104.703 23.4825 104.411 23.5313 104.117 23.5223M115.905 21.7272C114.525 21.7272 113.094 22.3228 112.502 23.6414L114.196 24.3331C114.557 23.6414 115.23 23.4157 115.939 23.4157C116.924 23.4157 117.928 23.9946 117.943 25.0249V25.1523C117.33 24.835 116.647 24.67 115.954 24.6717C114.13 24.6717 112.271 25.6518 112.271 27.4845C112.271 29.1563 113.767 30.2346 115.444 30.2346C116.725 30.2346 117.434 29.6725 117.879 29.0121H117.943V29.9776H119.784V25.1858C119.784 22.9664 118.092 21.7272 115.905 21.7272ZM115.676 28.5795C115.05 28.5795 114.181 28.2723 114.181 27.5179C114.181 26.5525 115.266 26.1826 116.204 26.1826C116.812 26.1671 117.413 26.3114 117.945 26.6005C117.875 27.1426 117.607 27.6417 117.191 28.0055C116.774 28.3693 116.237 28.5732 115.679 28.5795M126.494 22.001L124.307 27.4218H124.241L121.978 22.001H119.923L123.326 29.5763L121.38 33.7914H123.369L128.613 22.0031L126.494 22.001ZM109.315 29.9985H111.222V17.4913H109.315V29.9985Z" fill="white"/>
<path d="M21.1785 19.4221L10.2944 30.7235C10.4124 31.1511 10.6295 31.5462 10.9289 31.8783C11.2284 32.2104 11.6021 32.4705 12.021 32.6383C12.44 32.8061 12.8928 32.8771 13.3443 32.8458C13.7959 32.8146 14.234 32.6819 14.6246 32.458L14.6587 32.4371L26.9164 25.5284L21.1785 19.4221Z" fill="#E43629"/>
<path d="M32.1887 17.4912H32.178L26.8887 14.4924L20.9351 19.6792L26.9165 25.5305L32.178 22.561C32.6439 22.315 33.0334 21.9507 33.3054 21.5064C33.5774 21.0621 33.7219 20.5542 33.7237 20.0363C33.7254 19.5184 33.5843 19.0096 33.3153 18.5636C33.0463 18.1175 32.6593 17.7507 32.1951 17.5017" fill="#F9BD00"/>
<path d="M10.2945 9.27637C10.2272 9.51743 10.1935 9.76626 10.1941 10.0161V29.9837C10.1935 30.2336 10.2272 30.4825 10.2945 30.7235L21.5524 19.7126L10.2945 9.27637Z" fill="#587DBE"/>
<path d="M21.2575 19.999L26.8908 14.4904L14.6545 7.55033C14.2636 7.32143 13.8238 7.18426 13.3696 7.1496C12.9154 7.11494 12.4591 7.18374 12.0367 7.35058C11.6142 7.51742 11.2371 7.77778 10.9348 8.1112C10.6325 8.44463 10.4133 8.84206 10.2944 9.27229L21.2575 19.999Z" fill="#30A043"/>
</g>
<path d="M42.7117 6.93086H44.7496C45.3476 6.91726 45.9393 7.053 46.4693 7.32535C46.9477 7.57691 47.3405 7.96062 47.5993 8.42907C47.8592 8.93428 47.9946 9.4924 47.9946 10.0584C47.9946 10.6245 47.8592 11.1826 47.5993 11.6878C47.3409 12.157 46.948 12.5415 46.4693 12.7936C45.9391 13.0652 45.3474 13.2002 44.7496 13.186H42.7117V6.93086ZM44.7219 12.2774C45.446 12.2774 46.0036 12.0823 46.4073 11.6878C46.6146 11.4705 46.7747 11.2142 46.8779 10.9342C46.9811 10.6543 47.0252 10.3567 47.0076 10.0595C47.0251 9.76195 46.981 9.46403 46.8778 9.18378C46.7746 8.90352 46.6145 8.64676 46.4073 8.42907C46.0072 8.03598 45.4453 7.83944 44.7219 7.83944H43.6901V12.2774H44.7219Z" fill="white"/>
<path d="M49.2764 6.93091H53.1365V7.83949H50.2548V9.60418H52.8503V10.5128H50.2548V12.2775H53.1365V13.186H49.2764V6.93091Z" fill="white"/>
<path d="M54.8518 12.8711C54.4213 12.5555 54.1113 12.1069 53.9717 11.5974L54.9009 11.2302C54.9824 11.5574 55.1582 11.8547 55.4072 12.0863C55.6455 12.3051 55.9612 12.424 56.2873 12.4178C56.5788 12.4267 56.8651 12.3404 57.1012 12.1723C57.2089 12.0962 57.2958 11.995 57.3539 11.8778C57.4121 11.7606 57.4397 11.6311 57.4345 11.5009C57.4372 11.378 57.4123 11.2561 57.3618 11.1437C57.3112 11.0313 57.2361 10.9312 57.1418 10.8504C56.8379 10.6228 56.494 10.4521 56.1271 10.3468L55.7234 10.2188C55.322 10.086 54.9537 9.87149 54.6425 9.5893C54.4987 9.44865 54.3865 9.28007 54.3129 9.09434C54.2393 8.90861 54.206 8.70984 54.2152 8.51075C54.2125 8.20186 54.3024 7.899 54.4737 7.63994C54.6468 7.36937 54.8931 7.15141 55.1851 7.01045C55.5074 6.85564 55.8624 6.77799 56.2211 6.78383C56.6962 6.76014 57.1647 6.90043 57.5456 7.18041C57.8518 7.41135 58.0863 7.72165 58.2228 8.0764L57.3405 8.44361C57.2745 8.23085 57.1413 8.04421 56.9603 7.91063C56.7487 7.75185 56.4871 7.67092 56.2211 7.68191C55.9563 7.67449 55.6966 7.75508 55.4841 7.91063C55.3896 7.97479 55.3125 8.06076 55.2596 8.161C55.2067 8.26123 55.1796 8.37268 55.1808 8.48557C55.1795 8.58981 55.2035 8.69285 55.2506 8.78623C55.2978 8.87962 55.3668 8.96067 55.4521 9.02275C55.7069 9.20338 55.9907 9.34096 56.2916 9.42982L56.7018 9.57041C57.1732 9.71432 57.6049 9.9619 57.9643 10.2943C58.115 10.4525 58.2319 10.6387 58.3082 10.842C58.3845 11.0452 58.4186 11.2614 58.4086 11.4778C58.4218 11.8454 58.3106 12.207 58.0925 12.506C57.8854 12.7794 57.6062 12.9921 57.285 13.1208C56.9657 13.2561 56.6222 13.3274 56.2745 13.3306C55.762 13.334 55.2623 13.1726 54.8518 12.8711Z" fill="white"/>
<path d="M60.9122 12.8984C60.4117 12.6194 59.9982 12.2117 59.7159 11.7191C59.4302 11.211 59.2803 10.6399 59.2803 10.0594C59.2803 9.47882 59.4302 8.90776 59.7159 8.39958C59.9982 7.90701 60.4117 7.49931 60.9122 7.22032C61.4262 6.9361 62.0079 6.79127 62.5977 6.80065C63.0418 6.79021 63.4829 6.87641 63.8891 7.05308C64.2954 7.22976 64.6568 7.49252 64.9475 7.82254L64.2639 8.47722C64.0631 8.23614 63.8127 8.0395 63.5291 7.90018C63.2381 7.76797 62.9203 7.70266 62.5998 7.70923C62.1863 7.70435 61.7786 7.80484 61.4164 8.0009C61.0608 8.19779 60.7685 8.48854 60.5725 8.84023C60.3677 9.22112 60.2606 9.64538 60.2606 10.0761C60.2606 10.5069 60.3677 10.9312 60.5725 11.3121C60.7682 11.664 61.0606 11.9548 61.4164 12.1514C61.7784 12.3481 62.1861 12.4493 62.5998 12.4452C62.9529 12.4472 63.3015 12.3684 63.6182 12.2151C63.9349 12.0618 64.2108 11.8381 64.4242 11.5618L65.1248 12.2269C64.8217 12.5834 64.4425 12.87 64.014 13.0663C63.5211 13.2828 62.9837 13.3837 62.4443 13.3612C61.9048 13.3386 61.3781 13.1931 60.9058 12.9362L60.9122 12.8984Z" fill="white"/>
<path d="M68.1562 6.93091H69.2671L71.6767 13.186H70.6086L70.0212 11.5787H67.4171L66.8318 13.186H65.7637L68.1562 6.93091ZM69.6943 10.689L68.983 8.77114L68.7437 8.05352H68.6903L68.4489 8.77114L67.7375 10.689H69.6943Z" fill="white"/>
<path d="M72.6316 6.93089H74.8639C75.2276 6.92565 75.5867 7.01006 75.9086 7.1764C76.2195 7.3359 76.4789 7.5776 76.6575 7.87421C76.836 8.17083 76.9266 8.51056 76.919 8.85506C76.9235 9.26363 76.7762 9.65979 76.5046 9.96928C76.2368 10.287 75.8745 10.5144 75.4685 10.6198V10.6638L77.2202 13.1441V13.1965H76.0901L74.3918 10.7415H73.6185V13.1965H72.6316V6.93089ZM74.8383 9.84967C75.1279 9.85835 75.4094 9.75514 75.6223 9.5622C75.7247 9.47034 75.8058 9.35803 75.8604 9.2328C75.9149 9.10758 75.9415 8.97235 75.9385 8.83618C75.9389 8.70031 75.9112 8.56577 75.8571 8.44072C75.803 8.31568 75.7236 8.20273 75.6237 8.10874C75.5239 8.01475 75.4056 7.94167 75.2761 7.89394C75.1466 7.84621 75.0085 7.82483 74.8704 7.83108H73.6078V9.84967H74.8383Z" fill="white"/>
<path d="M79.4952 12.8983C78.986 12.612 78.5629 12.1987 78.2686 11.7002C77.9743 11.2016 77.8193 10.6356 77.8193 10.0593C77.8193 9.48302 77.9743 8.91697 78.2686 8.41843C78.5629 7.91989 78.986 7.50655 79.4952 7.22026C80.0052 6.93764 80.5823 6.79283 81.1678 6.80059C81.6279 6.79533 82.0843 6.8817 82.5094 7.05449C82.9049 7.21221 83.2601 7.45366 83.5497 7.76163L82.8854 8.41631C82.6717 8.18081 82.4077 7.99457 82.1123 7.87088C81.8169 7.74719 81.4973 7.6891 81.1764 7.70077C80.7686 7.69822 80.3669 7.79866 80.01 7.99244C79.6519 8.18956 79.3562 8.48002 79.1555 8.83177C78.9382 9.20672 78.8276 9.63213 78.8351 10.0635C78.8269 10.4968 78.9392 10.9241 79.1598 11.2994C79.3622 11.6499 79.6575 11.9399 80.0143 12.1387C80.3723 12.334 80.7755 12.4351 81.1849 12.4325C81.487 12.4427 81.7879 12.392 82.0693 12.2838C82.3507 12.1755 82.6066 12.0119 82.8213 11.803C82.9664 11.6633 83.0825 11.4973 83.1631 11.3141C83.2584 11.1061 83.3225 10.8856 83.3532 10.6594H81.1572V9.79911H84.2525C84.2854 9.96651 84.3033 10.1364 84.3059 10.3069C84.3073 10.6917 84.243 11.074 84.1158 11.4379C83.9918 11.7936 83.7906 12.1187 83.5262 12.3905C83.2422 12.6941 82.8925 12.9315 82.503 13.0851C82.0812 13.2504 81.6304 13.3324 81.1764 13.3264C80.5872 13.3331 80.0069 13.1853 79.4952 12.8983Z" fill="white"/>
<path d="M87.1431 6.93091H88.2539L90.6657 13.186H89.5976L89.0101 11.5787H86.4061L85.8186 13.186H84.7505L87.1431 6.93091ZM88.6811 10.689L87.9698 8.77114L87.7305 8.05352H87.6771L87.4357 8.77114L86.7308 10.689H88.6811Z" fill="white"/>
<path d="M91.6248 6.93091H93.8571C94.2208 6.92548 94.58 7.0099 94.9017 7.17641C95.2127 7.33591 95.4721 7.57761 95.6506 7.87423C95.8292 8.17085 95.9197 8.51058 95.9122 8.85508C95.9117 9.26113 95.7614 9.65325 95.4892 9.9588C95.2218 10.2769 94.8593 10.5045 94.4531 10.6093V10.6534L96.2048 13.1336V13.186H95.0769L93.3679 10.731H92.5946V13.186H91.6162L91.6248 6.93091ZM93.8315 9.84969C94.1188 9.85671 94.3977 9.75361 94.6091 9.56222C94.7118 9.47061 94.7932 9.35835 94.8477 9.23306C94.9023 9.10778 94.9287 8.97242 94.9252 8.8362C94.9257 8.70033 94.898 8.56579 94.8439 8.44074C94.7898 8.31569 94.7104 8.20275 94.6105 8.10876C94.5106 8.01476 94.3923 7.94169 94.2628 7.89396C94.1333 7.84623 93.9953 7.82484 93.8571 7.83109H92.5946V9.84969H93.8315Z" fill="white"/>
<path d="M99.1208 6.93091H102.981V7.83949H100.101V9.60418H102.697V10.5128H100.101V12.2775H102.983V13.186H99.1208V6.93091Z" fill="white"/>
<path d="M104.352 6.93091H105.508L108.39 11.5263H108.443L108.39 10.3218V6.93091H109.358V13.186H108.345L105.316 8.35568H105.262L105.316 9.56222V13.186H104.348L104.352 6.93091Z" fill="white"/>
</g>
</g>
<defs>
<clipPath id="clip0_8286_297">
<rect width="138" height="40.1642" fill="white"/>
</clipPath>
</defs>
</svg>
