<?xml version="1.0" encoding="UTF-8" standalone="no"?>
<!-- Generator: Adobe Illustrator 19.0.0, SVG Export Plug-In . SVG Version: 6.00 Build 0)  -->
<svg id="Layer_1" style="enable-background:new 0 0 454.189 454.189" xmlns="http://www.w3.org/2000/svg" xml:space="preserve" viewBox="0 0 454.189 454.189" version="1.1" y="0px" x="0px" xmlns:xlink="http://www.w3.org/1999/xlink">
		<path d="m308.57 16.225v169.83c0 7.511-5.104 13.836-12.042 15.676-1.335 0.357-2.737 0.546-4.18 0.546h-273.67c-8.961 0-16.223-7.262-16.223-16.223v-169.84c0-8.961 7.262-16.223 16.223-16.223h273.67c1.443 0 2.845 0.189 4.18 0.546 6.93 1.836 12.04 8.16 12.04 15.672z" fill="#E6E6E6"/>
		<path d="m308.57 16.223v16.142h-306.11v-16.142c-0.004-8.961 7.258-16.223 16.218-16.223h273.67c8.95 0 16.22 7.262 16.22 16.223z" fill="#B3B3B3"/>
		<circle cx="24.706" r="10.114" cy="16.182" fill="#FC7A51"/>
		<circle cx="51.676" r="10.114" cy="16.182" fill="#F9DE58"/>
	<g fill="#808080">
		<rect height="11" width="235" y="61.817" x="32.676"/>
		<rect height="11" width="235" y="85.908" x="32.676"/>
		<rect height="11" width="235" y="110" x="32.676"/>
		<rect height="11" width="235" y="134.09" x="32.676"/>
		<rect height="11" width="235" y="158.18" x="32.676"/>
	</g>
	<path d="m307.57 222.2l-40.93 37.75c-18.44 17.01-46.85 17.01-65.29 0l-40.92-37.75c-11.06-10.2-16.84-24.89-15.72-39.89l2.38-49c0.25-3.29 0.67-6.53 1.28-9.7 2.84-15.07 9.53-28.71 18.98-39.91 4.2-4.99 8.95-9.49 14.15-13.41 14.64-11.07 32.85-17.59 52.5-17.59s37.86 6.53 52.5 17.59c2.35 1.77 4.61 3.66 6.77 5.66 2.61 2.43 5.08 5.01 7.38 7.74 9.45 11.2 16.14 24.84 18.98 39.92 0.61 3.17 1.03 6.41 1.28 9.7l2.37 49c1.13 15-4.66 29.69-15.71 39.89z" fill="#FCD18B"/>
	<path d="m263.83 209.69c0 3.104-0.476 6.099-1.357 8.906-3.79 12.127-15.107 20.925-28.474 20.925-13.375 0-24.692-8.797-28.474-20.925-0.881-2.808-1.357-5.802-1.357-8.906h59.66z" fill="#fff"/>
	<path d="m345.49 124.92h-13c0-54.31-44.185-98.495-98.494-98.495-54.311 0-98.495 44.185-98.495 98.495h-13c0-61.479 50.017-111.5 111.5-111.5s111.49 50.025 111.49 111.5z" fill="#F9DE58"/>
	<path d="m319.63 123.61c-2.84-15.08-9.53-28.72-18.98-39.92-2.3-2.73-4.77-5.31-7.38-7.74-1.045-0.969-2.118-1.907-3.209-2.824-0.219-0.184-0.446-0.357-0.667-0.538-0.894-0.736-1.798-1.459-2.72-2.159-0.059-0.045-0.115-0.094-0.174-0.138-0.002 0.002-0.004 0.004-0.007 0.005-14.643-11.057-32.847-17.595-52.493-17.595-19.651 0-37.86 6.529-52.498 17.592l-0.002-0.002c-0.022 0.017-0.042 0.035-0.064 0.051-1.208 0.915-2.391 1.86-3.549 2.835-0.112 0.094-0.225 0.188-0.337 0.282-1.108 0.943-2.191 1.915-3.251 2.911-0.127 0.12-0.256 0.237-0.383 0.357-1.066 1.015-2.104 2.058-3.117 3.125-0.093 0.098-0.188 0.193-0.28 0.291-1.088 1.156-2.145 2.342-3.169 3.557-9.45 11.2-16.14 24.84-18.98 39.91 12.765-3.477 24.129-10.323 33.119-19.504 13.34 13.625 31.938 22.084 52.511 22.084 20.574 0 39.164-8.459 52.5-22.079 8.99 9.19 20.36 16.03 33.13 19.5z" fill="#808080"/>
	<g fill="#808080">
		<circle cx="195" r="10" cy="163.95"/>
		<circle cx="273" r="10" cy="163.95"/>
	</g>
	<g fill="#E6E6E6">
		<polygon points="180.1 250.95 231.1 301.95 207.1 340.95 167.1 260.95"/>
		<polygon points="287.9 250.95 236.9 301.95 260.9 340.95 300.9 260.95"/>
	</g>
	<polygon points="248.14 334.95 234 310.95 219.85 334.95 234 349.1" fill="#2BE0C6"/>
	<polygon points="272.88 415.3 234 349.31 195.11 415.3 234 454.19" fill="#2BE0C6"/>
	<path d="m184.96 224.95c0 1.8-0.73 3.42-1.9 4.6-1.18 1.17-2.8 1.9-4.6 1.9h-30.73c-14.42 0-26.11-11.69-26.11-26.11v-17.39h13v17.39c0 7.24 5.87 13.11 13.11 13.11h30.73c3.59 0 6.5 2.91 6.5 6.5z" fill="#FC7A51"/>
	<g fill="#29ABE2">
		<path d="m137.46 113.85c-22.556 0-40.841 18.285-40.841 40.841s18.285 40.841 40.841 40.841"/>
		<path d="m330.53 113.85c22.556 0 40.841 18.285 40.841 40.841s-18.285 40.841-40.841 40.841"/>
	</g>
	<path d="m184.96 224.95c0 1.8-0.73 3.42-1.9 4.6-1.18 1.17-2.8 1.9-4.6 1.9h-19v-13h19c3.59 0 6.5 2.91 6.5 6.5z" fill="#808080"/>
		<path d="m439.85 424.85h-120.23c-6.565 0-11.887-5.322-11.887-11.887v-155.22c0-6.565 5.322-11.887 11.887-11.887h120.23c6.565 0 11.887 5.322 11.887 11.887v155.23c-0.01 6.56-5.33 11.88-11.89 11.88z" fill="#808080"/>
		<rect height="149" width="114" y="260.85" x="322.73" fill="#E6E6E6"/>
		<path d="m393.16 237.85h-26.855c-4.182 0-7.572 3.39-7.572 7.572v25.428h42v-25.428c0-4.18-3.39-7.57-7.57-7.57z" fill="#29ABE2"/>
		<g fill="#29ABE2">
			<rect height="11" width="86" y="285.85" x="336.73"/>
			<rect height="11" width="86" y="309.95" x="336.73"/>
			<rect height="11" width="86" y="334.04" x="336.73"/>
			<rect height="11" width="86" y="358.13" x="336.73"/>
			<rect height="11" width="43" y="382.22" x="336.73"/>
		</g>
	<path d="m58.285 239.37c-30.369 0-54.987 24.619-54.987 54.987 0 17.057 7.768 32.3 19.958 42.385l-11.133 31.173 28.672-21.413-0.013-0.02c5.5 1.846 11.382 2.862 17.504 2.862 30.368 0 54.987-24.619 54.987-54.987s-24.616-54.98-54.985-54.98z" fill="#FC7A51"/>
		<path d="m49.943 303.3c0-3.263 0.533-6.194 1.599-8.792 1.065-2.598 3.263-4.861 6.594-6.794 0.999-0.599 2.231-1.282 3.697-2.048 1.464-0.765 2.897-1.681 4.296-2.747 1.399-1.065 2.58-2.314 3.547-3.747 0.965-1.431 1.449-3.08 1.449-4.945 0-1.399-0.267-2.63-0.799-3.697-0.534-1.065-1.233-1.964-2.098-2.697-0.867-0.732-1.883-1.282-3.047-1.649-1.166-0.365-2.348-0.549-3.546-0.549-1.466 0-2.798 0.25-3.997 0.749s-2.282 1.133-3.247 1.898c-0.967 0.767-1.833 1.633-2.598 2.598-0.766 0.966-1.416 1.883-1.948 2.748l-8.692-5.995c0.865-2.064 2.014-3.896 3.447-5.495 1.431-1.599 3.063-2.947 4.895-4.046 1.831-1.099 3.812-1.931 5.945-2.497 2.131-0.565 4.329-0.849 6.594-0.849 2.531 0 5.029 0.367 7.494 1.099 2.463 0.734 4.678 1.898 6.644 3.497 1.964 1.599 3.562 3.647 4.795 6.144 1.232 2.498 1.848 5.479 1.848 8.942 0 2.132-0.249 4.013-0.749 5.645-0.499 1.633-1.217 3.114-2.148 4.446-0.933 1.333-2.033 2.532-3.297 3.597-1.266 1.066-2.698 2.098-4.296 3.097-1.333 0.799-2.665 1.566-3.997 2.298-1.333 0.734-2.548 1.549-3.647 2.448s-1.998 1.932-2.698 3.097c-0.699 1.166-1.049 2.582-1.049 4.246h-10.991v0.01zm0.2 23.27v-13.787h11.09v13.787h-11.09z" fill="#fff"/>
		<path d="m186.36 321.12l11.133-31.173-28.672 21.413 0.013 0.02c-5.5-1.846-11.382-2.862-17.504-2.862-30.369 0-54.987 24.619-54.987 54.987s24.618 54.987 54.987 54.987c30.368 0 54.987-24.619 54.987-54.987 0-17.06-7.77-32.3-19.96-42.39z" fill="#29ABE2"/>
			<path d="m145.49 371.66v-39.244h11.687v39.244h-11.69zm0 23.28v-13.168h11.687v13.168h-11.69z" fill="#fff"/>
</svg>
